<?xml version="1.0" encoding="UTF-8"?>
<svg id="katman_1" data-name="katman 1" xmlns="http://www.w3.org/2000/svg" viewBox="0 0 314.61 99.74">
  <defs>
    <style>
      .cls-1 {
        fill: #fff;
      }
    </style>
  </defs>
  <path class="cls-1" d="M42.91,47.06l-12.25-2.68c-4.01-.93-4.63-2.68-4.63-4.32,0-2.37,1.54-5.04,7-5.04s9.26,2.98,9.78,7.1l12.97-2.57c-1.75-8.95-10.19-15.23-22.34-15.23-12.97,0-21,7.1-21,16.98,0,7.41,5.25,12.66,14.51,14.62l10.5,2.16c4.43.93,5.66,2.78,5.66,4.63,0,2.88-2.98,5.15-8.03,5.15-5.35,0-9.88-1.75-10.6-7l-13.69,2.78c1.34,10.7,11.73,15.13,23.06,15.13,13.38,0,22.54-5.87,22.54-17.19,0-6.9-4.43-12.56-13.48-14.51Z"/>
  <path class="cls-1" d="M93.35,24.31c-7,0-12.66,2.06-16.98,5.66v-4.12h-13.59v68.86h13.59v-21.51c4.32,3.5,9.98,5.56,16.98,5.56,13.07,0,25.22-11.01,25.22-27.17s-12.15-27.28-25.22-27.28ZM90.98,66.93c-7.31,0-14.62-5.87-14.62-15.34s7.31-15.44,14.62-15.44c8.24,0,14.41,5.97,14.41,15.44s-6.18,15.34-14.41,15.34Z"/>
  <path class="cls-1" d="M199.13,35.22v-9.37h-13.59v51.36h13.59v-16.57c0-14.31,5.76-22.03,18.32-22.03h2.98l.72-13.07c-1.23-.41-2.26-.41-3.6-.41-8.34,0-14.31,4.12-18.42,10.09Z"/>
  <path class="cls-1" d="M233.51,5.02c-4.63,0-7.92,3.6-7.92,7.72,0,4.53,3.29,7.82,7.92,7.82s8.03-3.29,8.03-7.82c0-4.12-3.4-7.72-8.03-7.72Z"/>
  <rect class="cls-1" x="226.82" y="25.86" width="13.59" height="51.36"/>
  <polygon class="cls-1" points="288.68 25.75 274.47 58.59 260.89 25.75 245.76 25.75 267.06 75.57 258.83 94.72 273.96 94.72 303.81 25.75 288.68 25.75"/>
  <path class="cls-1" d="M160.37,51.5h-7.27v-9.99c0-.55-.36-.91-.91-.91s-.91.36-.91.91v9.99c0,.55.36.91.91.91,0,.55.36.91.91.91h7.27c.55,0,.91-.36.91-.91s-.36-.91-.91-.91Z"/>
  <path class="cls-1" d="M173.9,30.31c.5-.5.74-1.15.74-1.79s-.24-1.31-.74-1.8c-.98-.98-2.58-.98-3.58,0l-2.41,2.41c-3.88-2.51-8.45-4.04-13.34-4.41v-4.28h6.11c1.76,0,3.19-1.43,3.19-3.19s-1.43-3.19-3.19-3.19h-17.29c-1.76,0-3.19,1.43-3.19,3.19s1.43,3.19,3.19,3.19h6.11v4.3c-14.1,1.18-25.31,11.65-25.31,26.86,0,16.15,12.66,26.96,28,26.96s27.68-10.81,27.68-26.96c0-7.95-3.05-14.6-7.95-19.31l1.97-1.97ZM152.19,66.92c-7.41,0-14.83-5.76-14.83-15.32s7.42-15.34,14.83-15.34c2.33,0,4.68.61,6.81,1.79,1.48.81,2.84,1.89,3.97,3.21,2.26,2.57,3.73,6.07,3.73,10.34,0,9.56-7.41,15.32-14.52,15.32Z"/>
</svg>